<svg width="24" height="24" viewBox="0 0 24 24" fill="none" xmlns="http://www.w3.org/2000/svg">
<path fill-rule="evenodd" clip-rule="evenodd" d="M2.458 9.012C2.161 9.959 2 10.967 2 12.012C2 17.532 6.481 22.012 12 22.012C17.52 22.012 22 17.532 22 12.012C22 6.493 17.52 2.012 12 2.012C9.879 2.012 7.917 2.68 6.297 3.808L8 6.012H1.42L3.355 0L5.073 2.223C7.031 0.834 9.419 0.012 12 0.012C18.623 0.012 24 5.389 24 12.012C24 18.635 18.623 24 12 24C5.377 24 0 18.635 0 12.012C0 10.976 0.132 9.971 0.379 9.012H2.458ZM12.808 6C13.1 6.821 13.183 7.346 13.818 7.609C14.455 7.873 14.891 7.557 15.672 7.186L16.814 8.328C16.441 9.115 16.127 9.546 16.391 10.182C16.653 10.816 17.175 10.898 18 11.191V12.808C17.184 13.098 16.653 13.183 16.39 13.818C16.126 14.454 16.442 14.889 16.814 15.671L15.672 16.813C14.882 16.438 14.453 16.126 13.822 16.389C13.183 16.654 13.099 17.182 12.808 18H11.192C10.9 17.179 10.817 16.653 10.182 16.39C9.545 16.126 9.11 16.442 8.328 16.813L7.186 15.671C7.552 14.9 7.875 14.459 7.609 13.817C7.346 13.182 6.816 13.098 6 12.808V11.191C6.817 10.901 7.346 10.818 7.609 10.182C7.873 9.545 7.558 9.112 7.186 8.328L8.328 7.186C9.116 7.56 9.546 7.873 10.182 7.609C10.817 7.346 10.901 6.817 11.192 6H12.808V6ZM12 14C10.895 14 10 13.104 10 12C10 10.895 10.895 9.999 12 9.999C13.104 9.999 14 10.895 14 12C14 13.104 13.104 14 12 14Z" fill="white"/>
</svg>
