<svg width="18" height="18" viewBox="0 0 18 18" fill="none" xmlns="http://www.w3.org/2000/svg">
<path d="M0 9C0 4.02944 4.02944 0 9 0C13.9706 0 18 4.02944 18 9C18 13.9706 13.9706 18 9 18C4.02944 18 0 13.9706 0 9Z" fill="black"/>
<path d="M11.1217 4.7265C10.5683 4.701 10.4017 4.6965 9 4.6965C7.59825 4.6965 7.4325 4.70175 6.879 4.7265C5.45475 4.79175 4.79175 5.466 4.7265 6.879C4.70175 7.4325 4.69575 7.59825 4.69575 9C4.69575 10.4017 4.70175 10.5675 4.7265 11.1217C4.79175 12.531 5.45175 13.209 6.879 13.2743C7.43175 13.299 7.59825 13.305 9 13.305C10.4025 13.305 10.5683 13.2997 11.1217 13.2743C12.546 13.2097 13.2082 12.5333 13.2743 11.1217C13.299 10.5683 13.3043 10.4017 13.3043 9C13.3043 7.59825 13.299 7.4325 13.2743 6.879C13.2082 5.46675 12.5445 4.79175 11.1217 4.7265ZM9 11.6962C7.51125 11.6962 6.30375 10.4895 6.30375 9C6.30375 7.51125 7.51125 6.3045 9 6.3045C10.4888 6.3045 11.6962 7.51125 11.6962 9C11.6962 10.4888 10.4888 11.6962 9 11.6962ZM11.8028 6.828C11.4548 6.828 11.1728 6.546 11.1728 6.198C11.1728 5.85 11.4548 5.568 11.8028 5.568C12.1508 5.568 12.4327 5.85 12.4327 6.198C12.4327 6.54525 12.1508 6.828 11.8028 6.828ZM10.7498 9C10.7498 9.96675 9.966 10.7498 9 10.7498C8.034 10.7498 7.25025 9.96675 7.25025 9C7.25025 8.03325 8.034 7.25025 9 7.25025C9.966 7.25025 10.7498 8.03325 10.7498 9ZM9 0C4.02944 0 0 4.02944 0 9C0 13.9706 4.02944 18 9 18C13.9706 18 18 13.9706 18 9C18 4.02944 13.9706 0 9 0ZM14.2185 11.1645C14.1322 13.0732 13.0695 14.1307 11.1652 14.2185C10.605 14.244 10.4257 14.25 9 14.25C7.57425 14.25 7.39575 14.244 6.8355 14.2185C4.9275 14.1307 3.86925 13.0717 3.7815 11.1645C3.756 10.605 3.75 10.4257 3.75 9C3.75 7.57425 3.756 7.39575 3.7815 6.8355C3.86925 4.9275 4.92825 3.86925 6.8355 3.78225C7.39575 3.756 7.57425 3.75 9 3.75C10.4257 3.75 10.605 3.756 11.1652 3.78225C13.074 3.87 14.133 4.93125 14.2185 6.8355C14.244 7.39575 14.25 7.57425 14.25 9C14.25 10.4257 14.244 10.605 14.2185 11.1645Z" fill="white"/>
</svg>
