<svg width="100" height="100" viewBox="0 0 100 100" fill="none" xmlns="http://www.w3.org/2000/svg">
<g clip-path="url(#clip0_100_290)">
<path d="M51.5415 22.4125L28.0415 45.9125C25.3123 48.6417 21.729 50.0042 18.1498 50.0042C10.4207 50.0042 4.1665 43.7625 4.1665 36.0208C4.1665 32.4375 5.529 28.85 8.254 26.125L31.3373 3.04583C33.3665 1.01667 36.0248 0 38.6915 0C47.8832 0 52.5998 11.1917 46.0457 17.7458L25.5498 38.2417C22.9082 40.8833 18.6123 40.8833 15.9748 38.2417C13.3332 35.6042 13.3332 31.3083 15.9748 28.6667L32.5165 12.125L35.9665 15.575L19.4248 32.1167C18.6832 32.8542 18.6832 34.0542 19.4248 34.7917C20.1623 35.5333 21.3623 35.5333 22.0998 34.7917L42.5957 14.3C47.7582 9.12083 39.9457 1.33333 34.7915 6.49167L11.7082 29.575C8.154 33.1292 8.154 38.9083 11.7082 42.4667C15.2665 46.0167 21.0415 46.0167 24.5957 42.4667L48.0957 18.9667L51.5415 22.4125V22.4125ZM54.1957 0C55.8998 2.5375 56.8415 4.875 57.2332 8.33333H87.4998V56.4292C87.4998 73.5417 62.4998 66.6667 62.4998 66.6667C62.4998 66.6667 68.8248 91.6667 51.5082 91.6667H20.8332V58.075C18.2082 58.3875 16.6665 58.6167 12.4998 57.5208V100H54.954C68.1332 100 95.8332 69.9042 95.8332 59.9417V0H54.1957ZM74.9998 25H60.7373L57.4332 28.3042L56.5707 29.1667H74.9998V25ZM74.9998 37.5H48.2373L44.0707 41.6667H74.9998V37.5ZM74.9998 50H35.7373L33.9332 51.8042C33.0498 52.6917 32.0623 53.45 31.0623 54.1667H74.9998V50Z" fill="black"/>
</g>
<defs>
<clipPath id="clip0_100_290">
<rect width="100" height="100" fill="white"/>
</clipPath>
</defs>
</svg>
