<svg width="22" height="24" viewBox="0 0 22 24" fill="none" xmlns="http://www.w3.org/2000/svg">
<path d="M0 3.488C0 1.562 4.656 0 10 0C15.345 0 20 1.562 20 3.488C20 5.414 15.345 6.975 10 6.975C4.656 6.975 0 5.414 0 3.488V3.488ZM10 12.646C15.345 12.646 20 11.084 20 9.159V6.719C17.582 8.457 12.995 8.975 10 8.975C6.994 8.975 2.412 8.452 0 6.719V9.159C0 11.085 4.656 12.646 10 12.646ZM10 18.311C10.34 18.311 10.678 18.304 11.011 18.292C11.056 16.885 11.548 15.592 12.353 14.547C11.514 14.614 10.71 14.647 10 14.647C6.994 14.647 2.412 14.124 0 12.391V14.825C0 16.75 4.656 18.311 10 18.311ZM11.254 20.281C10.816 20.301 10.393 20.311 10 20.311C7.005 20.311 2.418 19.793 0 18.055V20.513C0 22.438 4.656 24 10 24C11.284 24 12.526 23.908 13.676 23.744C12.521 22.9 11.656 21.689 11.254 20.281ZM22 18.5C22 20.985 19.983 23 17.5 23C15.017 23 13 20.985 13 18.5C13 16.015 15.017 14 17.5 14C19.983 14 22 16.015 22 18.5ZM19.834 17.211L17.771 17.768L18.687 15.843L17.3 16.235L15.834 19.269L17.573 18.797L16.396 21.342L19.834 17.211V17.211Z" fill="white"/>
</svg>
