<svg width="19" height="21" viewBox="0 0 19 21" fill="none" xmlns="http://www.w3.org/2000/svg">
<path d="M6.00613 2.08687C4.75609 2.43138 3.51454 2.80599 2.28257 3.21038C2.17007 3.24682 2.07007 3.31412 1.99396 3.40462C1.91785 3.49512 1.86869 3.60517 1.85207 3.72225C1.12494 9.17831 2.80494 13.1591 4.80913 15.7815C5.65768 16.9029 6.66948 17.8908 7.81082 18.7123C8.26494 19.0326 8.66657 19.2636 8.98288 19.4119C9.14038 19.4867 9.269 19.5366 9.36744 19.5667C9.41049 19.5819 9.45488 19.5928 9.5 19.5996C9.54459 19.5923 9.5885 19.5813 9.63125 19.5667C9.731 19.5366 9.85963 19.4867 10.0171 19.4119C10.3321 19.2636 10.7351 19.0312 11.1892 18.7123C12.3305 17.8908 13.3423 16.9029 14.1909 15.7815C16.1951 13.1604 17.8751 9.17831 17.1479 3.72225C17.1315 3.60512 17.0824 3.49499 17.0062 3.40447C16.9301 3.31394 16.83 3.24668 16.7174 3.21038C15.863 2.93081 14.4206 2.47537 12.9939 2.08819C11.537 1.69313 10.1969 1.40044 9.5 1.40044C8.80438 1.40044 7.463 1.69313 6.00613 2.08819V2.08687ZM5.657 0.735C7.08107 0.347813 8.59438 0 9.5 0C10.4056 0 11.9189 0.347813 13.343 0.735C14.7999 1.12875 16.2686 1.59469 17.1322 1.87687C17.4933 1.99612 17.8134 2.2148 18.0558 2.5078C18.2982 2.80079 18.453 3.15622 18.5024 3.53325C19.2847 9.40931 17.4695 13.7642 15.2671 16.6451C14.3332 17.8775 13.2196 18.9628 11.9636 19.8647C11.5292 20.1768 11.0691 20.4512 10.5881 20.685C10.2206 20.8582 9.8255 21 9.5 21C9.1745 21 8.78075 20.8582 8.41194 20.685C7.93093 20.4512 7.47076 20.1768 7.03644 19.8647C5.78042 18.9628 4.66683 17.8775 3.73288 16.6451C1.53051 13.7642 -0.28468 9.40931 0.49757 3.53325C0.547034 3.15622 0.701851 2.80079 0.944235 2.5078C1.18662 2.2148 1.50674 1.99612 1.86782 1.87687C3.12151 1.46581 4.38494 1.08508 5.657 0.735Z" fill="white"/>
<path d="M13.2459 6.75408C13.307 6.81504 13.3555 6.88746 13.3886 6.96718C13.4216 7.04691 13.4387 7.13238 13.4387 7.2187C13.4387 7.30502 13.4216 7.39049 13.3886 7.47022C13.3555 7.54995 13.307 7.62237 13.2459 7.68333L9.30838 11.6208C9.24742 11.6819 9.175 11.7304 9.09527 11.7635C9.01555 11.7966 8.93008 11.8136 8.84376 11.8136C8.75744 11.8136 8.67196 11.7966 8.59224 11.7635C8.51251 11.7304 8.44009 11.6819 8.37913 11.6208L6.41038 9.65208C6.34936 9.59106 6.30096 9.51863 6.26794 9.43891C6.23492 9.35919 6.21793 9.27374 6.21793 9.18745C6.21793 9.10116 6.23492 9.01572 6.26794 8.936C6.30096 8.85628 6.34936 8.78384 6.41038 8.72283C6.4714 8.66181 6.54383 8.61341 6.62355 8.58039C6.70327 8.54737 6.78872 8.53037 6.87501 8.53037C6.96129 8.53037 7.04674 8.54737 7.12646 8.58039C7.20618 8.61341 7.27862 8.66181 7.33963 8.72283L8.84376 10.2283L12.3166 6.75408C12.3776 6.69296 12.45 6.64448 12.5297 6.61139C12.6095 6.57831 12.6949 6.56128 12.7813 6.56128C12.8676 6.56128 12.953 6.57831 13.0328 6.61139C13.1125 6.64448 13.1849 6.69296 13.2459 6.75408Z" fill="white"/>
</svg>
