<svg width="24" height="24" viewBox="0 0 24 24" fill="none" xmlns="http://www.w3.org/2000/svg">
<path d="M24 20.682C23.998 22.237 22.83 23 21.76 23C20.857 23 20 22.456 20 21.384C20 20.28 21.201 19.266 22.515 19.266C22.676 19.266 22.838 19.281 23 19.313V15.001L17 16.23V21.68C16.998 23.236 15.82 24 14.742 24C13.836 24 13 23.458 13 22.39C13 21.284 14.201 20.265 15.518 20.265C15.678 20.265 15.84 20.28 16.002 20.312V13.792L24 12V20.682V20.682ZM11 14C9.343 14 8 12.657 8 11C8 9.343 9.343 8 11 8C12.657 8 14 9.343 14 11C14 12.657 12.657 14 11 14ZM11 13C12.103 13 13 12.103 13 11C13 9.897 12.103 9 11 9C9.897 9 9 9.897 9 11C9 12.103 9.897 13 11 13ZM9.182 15.646C7.889 15.138 6.863 14.112 6.355 12.819L5.33 12.947C5.93 14.693 7.309 16.072 9.055 16.671L9.182 15.646V15.646ZM4.313 13.074L3.313 13.199C4.07 15.847 6.153 17.93 8.801 18.687L8.926 17.687C6.732 17.004 4.996 15.269 4.313 13.074V13.074ZM12.818 6.354C14.111 6.862 15.137 7.888 15.645 9.182L16.67 9.054C16.07 7.308 14.691 5.929 12.945 5.329L12.818 6.354V6.354ZM11.047 21.998C11.129 21.264 11.425 20.557 11.925 19.953C11.621 19.983 11.312 20 11 20C6.037 20 2 15.962 2 11C2 6.038 6.037 2 11 2C15.912 2 19.91 5.957 19.992 10.849L21.97 10.406C21.659 4.608 16.874 0 11 0C4.925 0 0 4.925 0 11C0 17.075 4.925 22 11 22L11.047 21.998V21.998ZM13.198 3.313L13.073 4.313C15.268 4.995 17.004 6.731 17.686 8.926L18.686 8.801C17.931 6.153 15.848 4.069 13.198 3.313V3.313Z" fill="white"/>
</svg>
