<svg width="18" height="18" viewBox="0 0 18 18" fill="none" xmlns="http://www.w3.org/2000/svg">
<path d="M0 9C0 4.02944 4.02944 0 9 0C13.9706 0 18 4.02944 18 9C18 13.9706 13.9706 18 9 18C4.02944 18 0 13.9706 0 9Z" fill="black"/>
<path d="M9 0C4.02944 0 0 4.02944 0 9C0 13.9706 4.02944 18 9 18C13.9706 18 18 13.9706 18 9C18 4.02944 13.9706 0 9 0ZM13.5495 7.23375C13.6868 10.2638 11.427 13.6417 7.4265 13.6417C6.21 13.6417 5.07825 13.2848 4.125 12.6735C5.268 12.8085 6.40875 12.4905 7.314 11.7817C6.372 11.7645 5.57625 11.1412 5.301 10.2855C5.63925 10.35 5.97225 10.3313 6.2745 10.2487C5.23875 10.0402 4.52325 9.10725 4.5465 8.109C4.8375 8.27025 5.169 8.367 5.52225 8.37825C4.563 7.737 4.2915 6.47025 4.8555 5.502C5.9175 6.8055 7.50525 7.66275 9.2955 7.75275C8.98125 6.40575 10.0035 5.1075 11.3947 5.1075C12.0135 5.1075 12.5737 5.36925 12.9667 5.78775C13.4572 5.69175 13.9193 5.51175 14.3348 5.265C14.1735 5.76825 13.8323 6.18975 13.3875 6.45675C13.8232 6.40425 14.2388 6.28875 14.6243 6.117C14.3363 6.5505 13.9718 6.93 13.5495 7.23375Z" fill="white"/>
</svg>
