<svg width="24" height="20" viewBox="0 0 24 20" fill="none" xmlns="http://www.w3.org/2000/svg">
<path fill-rule="evenodd" clip-rule="evenodd" d="M3.732 11H5.236C5.236 11 7.556 2.59701 8.035 0.737006C8.191 0.132006 8.681 -0.00099442 9 5.57958e-06C9.319 0.00100558 9.826 0.224006 9.947 0.740006C10.528 3.20601 13.057 14.648 13.057 14.648C13.057 14.648 14.654 8.20701 15 6.75701C15.101 6.33201 15.536 6.00001 16 6.00001C16.464 6.00001 16.865 6.34301 17 6.70701C17.312 7.54801 18.675 10.994 18.677 11H20.268C20.614 10.402 21.26 10 22 10C23.104 10 24 10.896 24 12C24 13.104 23.104 14 22 14C21.259 14 20.612 13.596 20.266 12.997C19.327 12.996 18.41 12.997 18 13C17.497 13.004 17.226 12.711 17.072 12.371L16.22 10.243C16.22 10.243 14.392 17.61 13.97 19.242C13.817 19.837 13.324 20.004 13 20C12.676 19.996 12.153 19.802 12.024 19.217C11.475 16.73 9.943 9.84801 8.901 5.16401C8.901 5.16401 7.346 10.928 6.965 12.263C6.835 12.717 6.534 12.994 6 13H3.732C3.386 13.598 2.74 14 2 14C0.896 14 0 13.104 0 12C0 10.896 0.896 10 2 10C2.74 10 3.386 10.402 3.732 11V11Z" fill="white"/>
</svg>
