<svg width="18" height="18" viewBox="0 0 18 18" fill="none" xmlns="http://www.w3.org/2000/svg">
<path d="M0 9C0 4.02944 4.02944 0 9 0C13.9706 0 18 4.02944 18 9C18 13.9706 13.9706 18 9 18C4.02944 18 0 13.9706 0 9Z" fill="black"/>
<path d="M9 0C4.02944 0 0 4.02944 0 9C0 13.9706 4.02944 18 9 18C13.9706 18 18 13.9706 18 9C18 4.02944 13.9706 0 9 0ZM12.3307 12.669C10.7542 12.777 7.24275 12.777 5.6685 12.669C3.9615 12.552 3.76275 11.7165 3.75 9C3.76275 6.27825 3.96375 5.448 5.6685 5.331C7.24275 5.223 10.755 5.223 12.3307 5.331C14.0385 5.448 14.2365 6.2835 14.25 9C14.2365 11.7218 14.0362 12.552 12.3307 12.669ZM7.5 7.2435L11.1877 8.997L7.5 10.7565V7.2435Z" fill="white"/>
</svg>
