<svg width="100" height="100" viewBox="0 0 100 100" fill="none" xmlns="http://www.w3.org/2000/svg">
<rect width="100" height="100" rx="50" fill="#B2DF2B"/>
<path d="M74.1045 26.8979C69.5792 24.8215 64.7265 23.2917 59.6527 22.4155C59.5603 22.3986 59.468 22.4409 59.4204 22.5254C58.7963 23.6354 58.105 25.0835 57.6209 26.2217C52.1637 25.4047 46.7345 25.4047 41.3892 26.2217C40.905 25.0582 40.1886 23.6354 39.5617 22.5254C39.5141 22.4437 39.4218 22.4015 39.3294 22.4155C34.2584 23.2889 29.4057 24.8187 24.8776 26.8979C24.8384 26.9148 24.8048 26.943 24.7825 26.9796C15.578 40.731 13.0564 54.1444 14.2934 67.3915C14.299 67.4563 14.3354 67.5183 14.3858 67.5577C20.4587 72.0175 26.3413 74.725 32.1147 76.5196C32.2071 76.5478 32.305 76.514 32.3638 76.4379C33.7295 74.5729 34.9469 72.6064 35.9907 70.5384C36.0523 70.4173 35.9935 70.2736 35.8676 70.2257C33.9366 69.4932 32.0979 68.6001 30.3292 67.5859C30.1893 67.5042 30.1781 67.3041 30.3068 67.2083C30.679 66.9294 31.0513 66.6392 31.4067 66.3462C31.471 66.2927 31.5606 66.2814 31.6362 66.3152C43.2558 71.6203 55.8354 71.6203 67.3179 66.3152C67.3935 66.2786 67.4831 66.2899 67.5502 66.3434C67.9057 66.6364 68.2779 66.9294 68.6529 67.2083C68.7816 67.3041 68.7732 67.5042 68.6333 67.5859C66.8646 68.6198 65.0259 69.4932 63.0921 70.2229C62.9662 70.2708 62.9102 70.4173 62.9718 70.5384C64.038 72.6035 65.2554 74.57 66.5959 76.4351C66.6519 76.514 66.7526 76.5478 66.845 76.5196C72.6464 74.725 78.529 72.0175 84.6019 67.5577C84.6551 67.5183 84.6887 67.4591 84.6943 67.3943C86.1747 52.0792 82.2147 38.7758 74.1968 26.9824C74.1772 26.943 74.1437 26.9148 74.1045 26.8979ZM37.7259 59.3254C34.2276 59.3254 31.3451 56.1137 31.3451 52.1694C31.3451 48.2251 34.1717 45.0134 37.7259 45.0134C41.308 45.0134 44.1626 48.2533 44.1066 52.1694C44.1066 56.1137 41.28 59.3254 37.7259 59.3254ZM61.3178 59.3254C57.8196 59.3254 54.9371 56.1137 54.9371 52.1694C54.9371 48.2251 57.7636 45.0134 61.3178 45.0134C64.9 45.0134 67.7545 48.2533 67.6986 52.1694C67.6986 56.1137 64.9 59.3254 61.3178 59.3254Z" fill="white"/>
</svg>
